<?xml version="1.0" encoding="UTF-8" standalone="no"?>
<!-- Created with Inkscape (http://www.inkscape.org/) -->

<svg
   width="210mm"
   height="297mm"
   viewBox="0 0 210 297"
   version="1.1"
   id="svg5"
   inkscape:version="1.2 (dc2aedaf03, 2022-05-15)"
   sodipodi:docname="sketches.svg"
   xmlns:inkscape="http://www.inkscape.org/namespaces/inkscape"
   xmlns:sodipodi="http://sodipodi.sourceforge.net/DTD/sodipodi-0.dtd"
   xmlns="http://www.w3.org/2000/svg"
   xmlns:svg="http://www.w3.org/2000/svg">
  <sodipodi:namedview
     id="namedview7"
     pagecolor="#ffffff"
     bordercolor="#000000"
     borderopacity="0.25"
     inkscape:showpageshadow="2"
     inkscape:pageopacity="0.0"
     inkscape:pagecheckerboard="0"
     inkscape:deskcolor="#d1d1d1"
     inkscape:document-units="mm"
     showgrid="false"
     inkscape:zoom="3.0929648"
     inkscape:cx="197.70674"
     inkscape:cy="283.54671"
     inkscape:window-width="1920"
     inkscape:window-height="986"
     inkscape:window-x="2869"
     inkscape:window-y="-11"
     inkscape:window-maximized="1"
     inkscape:current-layer="layer1" />
  <defs
     id="defs2" />
  <g
     inkscape:label="Layer 1"
     inkscape:groupmode="layer"
     id="layer1">
    <rect
       style="fill:#000000;stroke:none;stroke-width:1;stroke-dasharray:1, 1"
       id="rect184"
       width="2"
       height="10"
       x="22.613689"
       y="29.434187" />
    <rect
       style="fill:#000000;stroke:none;stroke-width:4.34742;stroke-dasharray:4.34742, 4.34742"
       id="rect184-2"
       width="2.0999999"
       height="9"
       x="26.339779"
       y="29.434187" />
    <rect
       style="fill:#000000;stroke:none;stroke-width:4.19524;stroke-dasharray:4.19524, 4.19524"
       id="rect184-23"
       width="2.2"
       height="8"
       x="29.6367"
       y="29.434187" />
    <rect
       style="fill:#000000;stroke:none;stroke-width:4.09877;stroke-dasharray:4.09877, 4.09877"
       id="rect184-8"
       width="2.4000001"
       height="7"
       x="33.033623"
       y="29.434187" />
    <rect
       style="fill:#000000;stroke:none;stroke-width:3.94968;stroke-dasharray:3.94968, 3.94968"
       id="rect184-7"
       width="2.5999999"
       height="6"
       x="36.630543"
       y="29.434187" />
    <rect
       style="fill:#000000;stroke:none;stroke-width:3.74166;stroke-dasharray:3.74166, 3.74166"
       id="rect184-4"
       width="2.8"
       height="5"
       x="40.427464"
       y="29.434187" />
    <rect
       style="fill:#000000;stroke:none;stroke-width:3.5777;stroke-dasharray:3.5777, 3.5777"
       id="rect184-5"
       width="3.2"
       height="4"
       x="44.424385"
       y="29.434187" />
    <rect
       style="fill:#000000;stroke:none;stroke-width:3.33167;stroke-dasharray:3.33167, 3.33167"
       id="rect184-3"
       width="3.7"
       height="3"
       x="48.821308"
       y="29.434187" />
    <rect
       style="fill:#000000;stroke:none;stroke-width:3;stroke-dasharray:3, 3"
       id="rect184-9"
       width="4.5"
       height="2"
       x="53.718227"
       y="29.434187" />
    <rect
       style="fill:#000000;stroke:none;stroke-width:2.50998;stroke-dasharray:2.50998, 2.50998"
       id="rect184-92"
       width="6.3000002"
       height="1"
       x="59.41515"
       y="29.434187" />
    <rect
       style="fill:#000000;stroke:none;stroke-width:1;stroke-dasharray:1, 1"
       id="rect184-28"
       width="2"
       height="10"
       x="22.898878"
       y="42.346783" />
    <rect
       style="fill:#000000;stroke:none;stroke-width:4.34742;stroke-dasharray:4.34742, 4.34742"
       id="rect184-2-6"
       width="2.0999999"
       height="9"
       x="26.562466"
       y="42.346783" />
    <rect
       style="fill:#000000;stroke:none;stroke-width:4.09878;stroke-dasharray:4.09878, 4.09878"
       id="rect184-23-2"
       width="2.0999999"
       height="8"
       x="29.796886"
       y="42.346783" />
    <rect
       style="fill:#000000;stroke:none;stroke-width:3.92427;stroke-dasharray:3.92427, 3.92427"
       id="rect184-8-3"
       width="2.2"
       height="7"
       x="33.031307"
       y="42.346783" />
    <rect
       style="fill:#000000;stroke:none;stroke-width:3.71483;stroke-dasharray:3.71483, 3.71483"
       id="rect184-7-5"
       width="2.3"
       height="6"
       x="36.894894"
       y="42.346783" />
    <rect
       style="fill:#000000;stroke:none;stroke-width:3.4641;stroke-dasharray:3.4641, 3.4641"
       id="rect184-4-6"
       width="2.4000001"
       height="5"
       x="40.858482"
       y="42.346783" />
    <rect
       style="fill:#000000;stroke:none;stroke-width:3.16227;stroke-dasharray:3.16227, 3.16227"
       id="rect184-5-4"
       width="2.5"
       height="4"
       x="44.92207"
       y="42.346783" />
    <rect
       style="fill:#000000;stroke:none;stroke-width:2.84605;stroke-dasharray:2.84605, 2.84605"
       id="rect184-3-0"
       width="2.7"
       height="3"
       x="49.085659"
       y="42.346783" />
    <rect
       style="fill:#000000;stroke:none;stroke-width:2.44949;stroke-dasharray:2.44949, 2.44949"
       id="rect184-9-0"
       width="3"
       height="2"
       x="54.50758"
       y="42.346783" />
    <rect
       style="fill:#000000;stroke:none;stroke-width:1.89737;stroke-dasharray:1.89737, 1.89737"
       id="rect184-92-3"
       width="3.5999999"
       height="1"
       x="60.758671"
       y="42.346783" />
    <text
       xml:space="preserve"
       style="font-size:2.82222px;font-family:Arial;-inkscape-font-specification:'Arial, Normal';text-align:start;text-anchor:start;fill:#000000;stroke:none;stroke-width:0.2;stroke-dasharray:none;stroke-dashoffset:0"
       x="3.2949121"
       y="33.831753"
       id="text1420"><tspan
         sodipodi:role="line"
         id="tspan1418"
         style="font-size:2.82222px;text-align:start;text-anchor:start;stroke:none;stroke-width:0.2"
         x="3.2949121"
         y="33.831753">Row 1</tspan><tspan
         sodipodi:role="line"
         style="font-size:2.82222px;text-align:start;text-anchor:start;stroke:none;stroke-width:0.2"
         x="3.2949121"
         y="37.359528"
         id="tspan1562">Equal weights</tspan><tspan
         sodipodi:role="line"
         style="font-size:2.82222px;text-align:start;text-anchor:start;stroke:none;stroke-width:0.2"
         x="3.2949121"
         y="40.887302"
         id="tspan1474" /></text>
    <text
       xml:space="preserve"
       style="font-size:2.82222px;font-family:Arial;-inkscape-font-specification:'Arial, Normal';text-align:start;text-anchor:start;fill:#000000;stroke:none;stroke-width:0.2;stroke-dasharray:none;stroke-dashoffset:0"
       x="3.2949121"
       y="46.365639"
       id="text1420-5"><tspan
         sodipodi:role="line"
         id="tspan1418-0"
         style="font-size:2.82222px;text-align:start;text-anchor:start;stroke:none;stroke-width:0.2"
         x="3.2949121"
         y="46.365639">Row 2</tspan><tspan
         sodipodi:role="line"
         style="font-size:2.82222px;text-align:start;text-anchor:start;stroke:none;stroke-width:0.2"
         x="3.2949121"
         y="49.893414"
         id="tspan1564">Equal Iz</tspan><tspan
         sodipodi:role="line"
         style="font-size:2.82222px;text-align:start;text-anchor:start;stroke:none;stroke-width:0.2"
         x="3.2949121"
         y="53.421188"
         id="tspan1474-7" /></text>
    <text
       xml:space="preserve"
       style="font-size:2.8734px;font-family:Arial;-inkscape-font-specification:'Arial, Normal';text-align:start;text-anchor:start;fill:#000000;stroke:none;stroke-width:0.162902;stroke-dasharray:none;stroke-dashoffset:0"
       x="3.4816988"
       y="27.838184"
       id="text1560"><tspan
         sodipodi:role="line"
         id="tspan1558"
         style="text-align:start;text-anchor:start;stroke-width:0.162902"
         x="3.4816988"
         y="27.838184">Whorl Height  10  9  8   7  6   5    4   3     2       1</tspan></text>
    <path
       style="fill:none;stroke:#000000;stroke-width:1;stroke-dasharray:none;stroke-dashoffset:0"
       d="m 51.26302,69.361802 c -1.157156,0.544843 -0.218059,1.909161 -0.661458,3.108854 -0.467828,1.265789 -0.859896,3.042709 -0.330729,4.034896 0.529167,0.992188 -0.414558,2.917061 0.859896,4.233333 1.412509,1.458858 2.711979,3.638021 3.505728,4.034896 0.79375,0.396875 13.096876,0.463021 16.668751,-2.116667 3.571875,-2.579687 4.233333,-1.719791 5.754687,-0.661458 1.521354,1.058333 3.477322,4.781854 5.622396,3.96875 2.9655,-1.124092 2.116666,-8.73125 2.182812,-9.260416 0.06615,-0.529167 1.407624,-6.776553 -0.79375,-8.665105 -1.911305,-1.639703 -7.276041,0.396875 -7.540625,0.463021 -0.264583,0.06615 -5.952512,5.170944 -9.458854,4.7625 -2.316181,-0.269806 -3.118002,-3.849272 -5.357812,-4.497916 -2.051684,-0.594163 -4.215329,0.784968 -6.35,0.859895 -1.369013,0.04805 -2.861694,-0.848126 -4.101042,-0.264583 z"
       id="path1620"
       sodipodi:nodetypes="sssssssssssssss" />
    <path
       style="fill:none;stroke:#000000;stroke-width:1;stroke-dasharray:none;stroke-dashoffset:0"
       d="m 45.5809,69.361802 c 1.157156,0.544843 0.218059,1.909161 0.661458,3.108854 0.467828,1.265789 0.859896,3.042709 0.330729,4.034896 -0.529167,0.992188 0.414558,2.917061 -0.859896,4.233333 -1.412509,1.458858 -2.711979,3.638021 -3.505728,4.034896 -0.79375,0.396875 -13.096876,0.463021 -16.66875,-2.116667 -3.571875,-2.579687 -4.233333,-1.719791 -5.754687,-0.661458 -1.521354,1.058333 -3.477322,4.781854 -5.622396,3.96875 -2.9655,-1.124092 -2.116666,-8.73125 -2.182812,-9.260416 -0.06615,-0.529167 -1.407624,-6.776553 0.79375,-8.665105 1.911305,-1.639703 7.276041,0.396875 7.540625,0.463021 0.264583,0.06615 5.952512,5.170944 9.458853,4.7625 2.316181,-0.269806 3.118002,-3.849272 5.357812,-4.497916 2.051684,-0.594163 4.215329,0.784968 6.35,0.859895 1.369013,0.04805 2.861694,-0.848126 4.101042,-0.264583 z"
       id="path1620-4"
       sodipodi:nodetypes="sssssssssssssss" />
    <circle
       style="fill:none;stroke:#000000;stroke-width:0.2;stroke-dasharray:none;stroke-dashoffset:0"
       id="path1765"
       cx="48.31953"
       cy="76.993752"
       r="0.26458332" />
    <path
       style="fill:none;stroke:#ff0000;stroke-width:0.1;stroke-dasharray:none;stroke-dashoffset:0"
       d="m 48.236848,76.977213 2.100131,-0.578776 -0.463021,-1.422136 z"
       id="path1772" />
    <path
       style="fill:none;stroke:#ff0000;stroke-width:0.1;stroke-dasharray:none;stroke-dashoffset:0"
       d="m 48.302994,76.977213 1.604037,-2.000912 0.628385,-2.66237 z"
       id="path1774" />
    <path
       style="fill:none;stroke:#ff0000;stroke-width:0.1;stroke-dasharray:none;stroke-dashoffset:0"
       d="m 48.269921,76.911067 2.248959,-4.597136 v -2.38125 z"
       id="path1778" />
    <path
       style="fill:none;stroke:#ff0000;stroke-width:0.1;stroke-dasharray:none;stroke-dashoffset:0"
       d="m 48.286458,76.861457 19.810677,-3.671093 5.22552,-2.248959 z"
       id="path1782" />
    <path
       style="fill:none;stroke:#ff0000;stroke-width:0.1;stroke-dasharray:none;stroke-dashoffset:0"
       d="m 48.220312,76.861457 25.003125,-5.886979 3.373437,-2.546614 z"
       id="path1784" />
    <path
       style="fill:none;stroke:#ff0000;stroke-width:0.1;stroke-dasharray:none;stroke-dashoffset:0"
       d="m 48.286458,76.960676 26.755989,3.96875 3.439583,2.050521 z"
       id="path1786" />
    <path
       style="fill:none;stroke:#ff0000;stroke-width:0.1;stroke-dasharray:none;stroke-dashoffset:0"
       d="m 48.220312,76.960676 30.129427,5.953125 2.976562,2.976563 z"
       id="path1788" />
    <path
       style="fill:none;stroke:#0000ff;stroke-width:0.1;stroke-dasharray:none;stroke-dashoffset:0"
       d="m 48.253385,76.89453 -2.612761,-7.408333 -3.737239,0.165365 z"
       id="path1790" />
    <path
       style="fill:none;stroke:#0000ff;stroke-width:0.1;stroke-dasharray:none;stroke-dashoffset:0"
       d="M 48.286458,76.596874 41.870312,69.684635 36.148697,68.527082 Z"
       id="path1900" />
    <path
       style="fill:none;stroke:#0000ff;stroke-width:0.1;stroke-dasharray:none;stroke-dashoffset:0"
       d="m 48.319531,76.927603 -12.170834,-8.367448 -2.182812,0.79375 z"
       id="path1956" />
    <path
       style="fill:none;stroke:#0000ff;stroke-width:0.1;stroke-dasharray:none;stroke-dashoffset:0"
       d="M 48.319531,76.861457 33.998958,69.353905 30.559375,72.991926 Z"
       id="path1958" />
    <path
       style="fill:none;stroke:#0000ff;stroke-width:0.1;stroke-dasharray:none;stroke-dashoffset:0"
       d="m 48.027833,76.699363 -33.329138,9.315222 -2.35905,-1.754166 z"
       id="path1960" />
    <path
       style="fill:none;stroke:#0000ff;stroke-width:0.1;stroke-dasharray:none;stroke-dashoffset:0"
       d="m 48.390764,76.820338 -35.99063,7.379592 -0.42342,-7.319102 z"
       id="path1962" />
  </g>
</svg>
